<?xml version="1.0" standalone="no"?>
<!DOCTYPE svg PUBLIC "-//W3C//DTD SVG 20010904//EN"
 "http://www.w3.org/TR/2001/REC-SVG-20010904/DTD/svg10.dtd">
<svg version="1.0" xmlns="http://www.w3.org/2000/svg"
 width="500.000000pt" height="500.000000pt" viewBox="0 0 500.000000 500.000000"
 preserveAspectRatio="xMidYMid meet">
<metadata>
Created by potrace 1.16, written by Peter Selinger 2001-2019
</metadata>
<g transform="translate(0.000000,500.000000) scale(0.100000,-0.100000)"
fill="#000000" stroke="none">
<path d="M510 2610 c0 -123 1 -130 20 -130 18 0 20 7 20 55 l0 55 39 0 c54 0
85 27 85 75 0 54 -29 75 -105 75 l-59 0 0 -130z"/>
<path d="M2902 2720 c-37 -23 -72 -75 -72 -108 0 -70 79 -140 143 -128 44 8
82 35 69 48 -7 7 -18 5 -33 -6 -36 -25 -76 -20 -110 13 -77 78 8 211 103 160
14 -8 23 -8 31 0 7 7 0 15 -26 26 -48 20 -65 19 -105 -5z"/>
<path d="M3930 2610 c0 -118 7 -150 25 -121 3 6 17 6 36 -1 87 -30 144 85 71
143 -25 20 -46 21 -84 4 -16 -6 -18 -1 -18 49 0 43 -3 56 -15 56 -13 0 -15
-21 -15 -130z"/>
<path d="M1475 2641 c-29 -12 -44 -33 -51 -69 -5 -26 -1 -36 25 -63 27 -26 37
-30 64 -25 38 7 77 48 77 81 0 50 -68 95 -115 76z"/>
<path d="M1904 2640 c-28 -11 -54 -48 -54 -77 0 -31 39 -72 77 -79 27 -5 37
-1 64 25 26 27 30 37 25 64 -11 55 -64 87 -112 67z"/>
<path d="M2159 2621 c-16 -16 -29 -36 -29 -45 0 -55 60 -99 105 -78 22 10 25
9 25 -8 0 -33 -29 -53 -72 -47 -50 7 -53 -19 -3 -29 42 -7 81 14 95 52 13 33
13 184 1 184 -6 0 -13 -5 -16 -10 -4 -7 -12 -7 -25 0 -30 16 -50 12 -81 -19z"/>
<path d="M2605 2640 c-50 -20 -68 -81 -36 -122 25 -31 75 -45 97 -27 11 9 18
9 26 1 23 -23 28 -11 28 73 0 83 -5 96 -27 74 -8 -8 -17 -8 -31 0 -24 13 -29
13 -57 1z"/>
<path d="M3210 2637 c-55 -28 -61 -99 -12 -138 34 -26 78 -19 110 18 55 62
-23 159 -98 120z"/>
<path d="M3590 2565 c0 -68 3 -85 15 -85 11 0 15 16 17 68 l3 67 30 0 30 0 3
-67 c2 -50 7 -68 17 -68 10 0 15 18 17 68 3 64 4 67 28 67 24 0 25 -3 28 -67
2 -52 6 -68 17 -68 18 0 21 93 6 133 -12 30 -43 42 -71 27 -14 -8 -26 -8 -41
1 -16 8 -28 8 -45 0 -15 -6 -24 -7 -24 -1 0 6 -7 10 -15 10 -12 0 -15 -16 -15
-85z"/>
<path d="M4485 2640 c-28 -11 -44 -31 -51 -66 -11 -56 64 -112 115 -85 13 7
22 8 26 1 17 -27 25 -2 25 75 0 77 -8 102 -25 75 -4 -7 -12 -7 -25 0 -22 12
-37 12 -65 0z"/>
</g>
</svg>
