<?xml version="1.0" standalone="no"?>
<!DOCTYPE svg PUBLIC "-//W3C//DTD SVG 20010904//EN"
 "http://www.w3.org/TR/2001/REC-SVG-20010904/DTD/svg10.dtd">
<svg version="1.0" xmlns="http://www.w3.org/2000/svg"
 width="2300.000000pt" height="1472.000000pt" viewBox="0 0 2300.000000 1472.000000"
 preserveAspectRatio="xMidYMid meet">
<metadata>
Created by potrace 1.16, written by Peter Selinger 2001-2019
</metadata>
<g transform="translate(0.000000,1472.000000) scale(0.100000,-0.100000)"
fill="#000000" stroke="none">
<path d="M4090 10763 c-60 -11 -226 -56 -274 -74 -28 -11 -114 -35 -191 -54
-151 -37 -237 -64 -356 -114 l-75 -31 -42 40 c-57 53 -129 74 -233 67 -91 -6
-141 -27 -169 -72 -21 -34 -27 -95 -10 -95 6 0 8 -25 4 -70 -7 -76 15 -160 42
-160 8 0 14 5 14 10 0 6 -5 10 -11 10 -6 0 -9 9 -6 20 3 11 1 22 -4 25 -12 8
-6 39 10 59 10 12 11 19 2 30 -10 11 -9 16 4 24 9 5 16 12 16 15 -3 24 2 27
34 21 28 -5 35 -3 35 9 0 10 8 15 23 14 35 -4 117 -39 112 -48 -7 -11 36 -34
58 -30 9 1 17 -1 17 -5 0 -4 -8 -13 -17 -21 -17 -13 -16 -14 4 -10 12 3 24 -1
27 -8 6 -17 86 -18 86 -1 0 6 4 5 9 -3 7 -11 11 -10 20 6 5 11 8 23 5 26 -3 3
12 3 32 0 33 -4 37 -3 26 10 -10 12 -8 14 13 12 14 -2 25 1 25 6 0 5 11 9 25
9 14 0 25 -4 25 -10 0 -5 -3 -10 -7 -10 -14 0 -170 -134 -205 -177 -19 -22
-51 -56 -71 -75 -40 -37 -147 -173 -147 -187 0 -5 -7 -14 -15 -21 -21 -18
-181 -310 -169 -310 2 0 -4 -17 -15 -39 -11 -21 -22 -49 -25 -62 -2 -13 -12
-44 -21 -69 -21 -55 -30 -90 -56 -205 -30 -134 -34 -189 -34 -425 0 -169 4
-231 17 -290 10 -41 21 -93 24 -115 3 -22 12 -58 19 -80 7 -22 21 -68 31 -103
9 -34 21 -65 25 -68 5 -3 9 -14 9 -25 0 -16 -5 -18 -27 -13 l-28 6 25 -21 c14
-11 30 -21 36 -21 6 0 25 -32 42 -70 l31 -71 -21 -54 c-17 -45 -23 -53 -35
-44 -7 7 -32 15 -54 19 -36 7 -45 4 -70 -19 -37 -33 -52 -83 -34 -108 9 -12
11 -35 8 -69 -7 -64 26 -138 72 -166 30 -17 31 -21 44 -125 7 -60 15 -122 18
-139 4 -27 1 -32 -26 -44 -17 -7 -43 -10 -58 -7 -42 8 -63 -8 -63 -48 0 -24 5
-35 15 -35 11 0 12 -5 5 -26 -18 -47 -12 -137 13 -183 35 -67 94 -104 172
-109 56 -4 73 0 120 24 l55 27 33 -30 c127 -121 352 -197 582 -197 134 0 227
13 360 51 96 28 290 106 315 128 8 7 26 15 40 17 33 4 43 55 36 176 -6 109
-32 178 -83 222 -91 80 -188 100 -616 129 -111 8 -147 14 -190 34 -74 33 -101
73 -93 135 12 95 18 222 12 245 -3 13 -21 43 -40 67 -37 47 -42 86 -13 118 31
34 21 63 -39 119 -49 45 -56 56 -51 80 3 15 11 57 18 93 25 130 -3 177 -125
214 -83 26 -109 43 -105 68 4 23 -13 48 -32 48 -10 0 -19 3 -19 7 0 3 20 34
45 67 142 190 184 247 219 298 21 31 48 59 61 62 12 3 39 24 59 46 34 38 36
43 36 113 0 52 -7 91 -26 142 -15 39 -28 84 -31 100 -9 60 80 416 150 598 14
37 24 67 22 67 -2 0 -16 -12 -30 -27 l-27 -28 29 55 c55 104 104 178 182 275
105 130 183 199 296 260 80 43 253 115 278 115 19 0 37 21 37 45 0 12 -5 26
-12 33 -12 12 -104 14 -158 5z"/>
<path d="M2043 10700 c-30 -12 -39 -54 -19 -85 9 -13 16 -38 16 -55 0 -18 6
-33 15 -36 8 -4 13 -10 10 -14 -7 -11 26 -36 55 -43 17 -4 36 0 55 13 17 11
40 20 52 20 40 0 56 28 48 83 -8 64 -19 83 -58 107 -34 21 -132 27 -174 10z"/>
<path d="M2533 10213 c-48 -9 -81 -86 -49 -112 8 -7 12 -21 9 -31 -13 -47 35
-150 69 -150 6 0 5 6 -2 15 -7 8 -9 15 -5 15 4 0 2 7 -5 15 -10 12 -10 15 0
15 7 0 2 9 -11 19 l-24 19 30 7 c17 4 35 8 42 10 14 5 63 -17 63 -27 0 -11 48
-10 54 1 3 5 -1 11 -9 15 -8 3 -15 10 -15 16 0 8 6 8 20 0 11 -6 20 -16 20
-23 0 -18 36 -19 51 -1 9 11 8 14 -3 14 -8 0 -15 7 -15 15 0 14 16 20 46 15 8
-1 12 4 8 14 -3 8 -1 16 5 18 6 2 4 10 -6 21 -9 9 -23 14 -30 11 -8 -3 -32 11
-54 30 -63 57 -115 73 -189 59z"/>
<path d="M4903 9889 c-70 -20 -123 -110 -88 -148 10 -12 14 -27 10 -44 -8 -30
11 -46 20 -16 14 42 71 79 123 79 21 0 24 2 12 10 -9 6 -10 10 -3 10 6 0 15
-5 19 -11 3 -6 17 -9 30 -6 13 2 23 1 22 -2 -2 -18 3 -24 11 -13 6 11 11 10
25 -3 9 -9 14 -20 12 -24 -3 -4 9 -17 25 -30 22 -17 27 -27 19 -36 -8 -9 -6
-17 5 -28 11 -12 12 -17 2 -21 -8 -3 -6 -9 7 -20 17 -14 18 -16 2 -22 -15 -6
-15 -7 1 -19 17 -13 17 -14 1 -20 -14 -5 -15 -12 -7 -32 5 -14 7 -28 4 -31 -2
-3 0 -11 5 -17 7 -9 6 -16 -5 -25 -19 -16 -19 -40 0 -40 8 0 15 -4 15 -10 0
-5 -7 -10 -15 -10 -30 0 -4 -130 40 -200 15 -25 29 -46 30 -48 3 -3 25 -8 46
-11 3 -1 14 -9 25 -19 22 -21 62 -34 69 -22 2 4 24 6 47 4 24 -3 102 -6 174
-8 72 -2 137 -7 144 -11 7 -4 16 -2 20 5 6 9 10 7 15 -9 3 -11 17 -24 30 -27
29 -7 82 -103 64 -115 -8 -4 -7 -8 2 -12 11 -4 11 -6 1 -6 -7 -1 -10 -5 -7
-11 3 -5 1 -10 -5 -10 -8 0 -10 -9 -6 -24 4 -18 1 -28 -11 -34 -9 -6 -18 -17
-19 -26 -3 -18 5 -15 53 20 17 13 38 24 46 24 8 0 26 9 41 21 23 18 26 27 26
86 0 117 -39 191 -123 236 -39 20 -60 22 -264 27 -246 6 -251 7 -300 80 -22
31 -23 42 -23 230 0 238 -9 278 -74 338 -24 22 -61 45 -82 51 -47 13 -166 13
-211 0z"/>
<path d="M2528 9852 c-52 -57 -91 -117 -142 -219 -122 -244 -164 -448 -148
-715 2 -29 22 -40 22 -12 0 9 5 12 13 8 9 -6 9 -4 -1 8 -7 9 -9 19 -4 22 5 3
7 17 5 31 -3 13 -9 22 -14 19 -5 -3 -6 2 -3 10 3 9 10 16 15 16 4 0 6 7 3 15
-4 8 -1 15 5 15 8 0 7 6 -1 20 -11 17 -10 22 2 30 13 9 13 11 0 20 -13 9 -13
11 0 20 12 8 12 10 -5 10 -20 1 -20 1 0 13 17 10 21 22 20 69 0 32 4 54 9 50
5 -3 7 2 3 11 -4 10 1 22 15 31 15 11 21 26 22 61 1 29 7 51 17 58 15 12 14
44 -2 61 -10 11 24 44 59 57 15 6 20 13 16 21 -16 25 -11 48 9 48 10 0 21 9
24 20 3 11 12 20 20 20 8 0 11 5 8 10 -3 6 -15 10 -26 10 -10 0 -19 5 -19 10
0 6 10 8 23 5 20 -5 27 1 47 39 13 24 27 43 31 40 4 -2 9 6 13 19 3 12 1 24
-6 26 -6 2 0 12 13 22 18 15 20 18 5 12 -15 -5 -18 -3 -13 10 9 25 3 21 -35
-21z"/>
<path d="M4672 9208 c-9 -9 -78 -14 -240 -18 -209 -5 -230 -7 -268 -27 -59
-32 -92 -105 -59 -133 10 -9 13 -24 8 -58 -5 -44 -4 -46 10 -27 9 11 17 33 17
48 0 16 4 26 9 23 4 -3 28 4 52 16 38 18 65 21 223 24 98 2 184 8 190 13 7 6
22 8 34 4 13 -3 22 -1 22 6 0 6 8 11 19 11 24 0 71 37 71 56 0 8 5 14 10 14 6
0 10 9 10 21 0 11 -4 18 -9 15 -5 -3 -14 1 -21 9 -15 18 -61 20 -78 3z"/>
<path d="M6325 8696 c-195 -38 -351 -148 -383 -270 -7 -26 -6 -32 11 -34 13
-3 16 -8 11 -20 -41 -94 -55 -264 -30 -358 27 -101 113 -196 222 -244 65 -30
228 -76 434 -125 250 -59 349 -102 419 -181 52 -60 64 -99 59 -194 -4 -68 -9
-83 -36 -121 -18 -24 -32 -37 -32 -31 0 7 -11 17 -24 23 -20 9 -30 6 -71 -26
-100 -76 -188 -105 -320 -105 -281 0 -464 138 -482 362 -9 113 -4 109 -146
106 l-122 -3 -3 -28 c-2 -16 1 -34 6 -40 6 -7 13 -39 17 -72 39 -343 240 -510
652 -541 96 -7 256 7 351 32 105 28 202 82 269 150 33 35 65 64 70 64 24 0 66
64 89 134 58 183 11 386 -114 496 -51 46 -173 110 -262 138 -36 12 -175 48
-310 82 -286 71 -316 81 -368 126 -60 51 -75 92 -67 180 7 73 6 73 -19 80
l-25 6 18 37 c39 74 133 137 239 160 66 14 212 14 283 1 182 -35 322 -175 346
-346 l6 -43 81 -3 c57 -2 84 0 92 9 6 8 18 11 25 8 8 -3 20 -1 27 4 11 7 12
25 3 97 -28 234 -193 405 -456 475 -103 27 -355 35 -460 15z"/>
<path d="M9278 8683 c-8 -10 -24 -34 -36 -53 -12 -19 -53 -78 -91 -130 -39
-52 -71 -101 -71 -109 0 -9 9 -12 29 -9 32 5 32 3 -6 -48 -36 -48 -31 -54 41
-54 61 0 65 1 96 38 98 114 243 253 270 258 40 8 70 40 70 72 0 48 -13 52
-155 52 -113 0 -134 -2 -147 -17z"/>
<path d="M10953 8659 c-17 -17 -16 -45 1 -72 12 -17 16 -94 20 -372 l6 -350
-23 75 c-48 159 -116 224 -266 256 -85 18 -247 18 -333 -1 -148 -31 -269 -117
-322 -229 -33 -69 -33 -80 -1 -74 l25 5 -19 -31 c-48 -80 -83 -242 -83 -391
-1 -419 222 -685 575 -685 180 0 342 83 428 218 l28 45 3 -114 3 -114 73 -3
c58 -2 72 0 72 12 0 10 9 14 28 13 l27 -2 0 897 c0 722 -3 900 -13 910 -18 18
-212 24 -229 7z m-291 -669 c186 -57 286 -209 313 -471 14 -130 -44 -372 -99
-418 -12 -10 -17 -9 -25 8 -14 26 -30 20 -98 -35 -147 -120 -315 -108 -441 31
-60 67 -99 155 -118 270 -16 92 -16 100 5 220 27 158 27 179 2 172 -17 -4 -18
-1 -10 22 16 44 81 123 133 158 94 64 218 80 338 43z"/>
<path d="M13317 8653 c-12 -11 -7 -56 7 -72 12 -13 16 -127 21 -696 3 -374 8
-767 11 -872 l6 -193 149 0 c119 0 149 3 149 14 0 9 8 12 25 8 16 -3 27 1 30
10 3 8 1 203 -4 433 -9 389 -12 429 -35 540 -24 113 -46 355 -33 355 3 0 10
-15 16 -32 9 -32 108 -306 136 -378 7 -19 36 -100 64 -180 28 -80 65 -179 80
-220 16 -41 46 -120 66 -175 20 -55 47 -127 60 -160 13 -33 36 -95 52 -137
l28 -77 129 -3 c125 -3 129 -2 139 20 6 13 19 22 32 22 40 0 25 -36 205 495
98 289 113 348 125 480 4 39 25 129 48 200 l42 130 5 -120 c3 -66 7 -257 8
-425 1 -168 5 -416 8 -552 l7 -248 111 0 c61 0 128 -3 149 -6 30 -5 37 -4 37
10 0 11 9 16 30 16 l31 0 -7 433 c-3 237 -9 643 -13 900 -5 400 -8 469 -21
477 -8 6 -124 10 -262 10 -241 0 -248 0 -259 -21 -6 -12 -8 -39 -5 -63 12 -76
7 -96 -105 -439 -183 -559 -270 -821 -280 -837 -5 -10 -8 4 -9 41 0 30 -4 59
-9 65 -5 5 -16 32 -24 59 -24 81 -87 257 -227 640 -72 198 -145 398 -162 445
-16 47 -35 91 -40 98 -8 9 -72 12 -258 12 -135 0 -250 -3 -253 -7z"/>
<path d="M20276 8644 c-20 -19 -20 -22 -1 -57 8 -15 17 -42 20 -60 3 -18 14
-338 26 -712 11 -374 23 -752 27 -840 l7 -160 143 -2 c123 -3 142 -1 142 13 0
10 6 13 18 10 45 -14 45 -39 18 865 -15 470 -30 874 -34 899 -9 56 -14 58
-204 59 -121 1 -149 -2 -162 -15z"/>
<path d="M5193 8603 c-7 -2 -13 -11 -13 -19 0 -8 -4 -14 -9 -14 -14 0 -19 -35
-9 -54 7 -13 5 -21 -8 -30 -10 -8 -14 -18 -9 -26 4 -7 8 -49 9 -94 1 -44 6
-89 10 -99 6 -13 5 -16 -8 -11 -15 6 -16 0 -13 -42 3 -27 1 -57 -4 -66 -7 -13
-6 -18 3 -18 8 -1 7 -5 -4 -14 -10 -7 -18 -16 -18 -20 0 -4 -12 -18 -27 -31
-45 -39 -2 -31 51 10 26 19 53 35 61 35 7 0 25 10 39 23 l25 22 2 214 c2 174
-1 215 -12 221 -23 13 -53 19 -66 13z"/>
<path d="M18237 8543 c-12 -11 -8 -48 7 -69 13 -18 21 -192 17 -342 l-1 -24
-30 25 c-31 26 -106 42 -165 35 -24 -2 -31 -8 -33 -31 -2 -16 1 -34 7 -41 6
-8 14 -57 18 -110 l6 -96 104 0 c56 0 103 -1 103 -2 0 -2 3 -115 6 -253 8
-384 21 -593 40 -657 21 -72 69 -121 149 -150 52 -19 80 -22 209 -21 129 0
151 2 162 17 6 10 15 17 18 17 27 -3 29 2 22 82 -9 106 -22 154 -46 167 -10 5
-45 10 -77 10 -69 0 -99 17 -108 62 -4 17 -10 159 -14 314 l-6 283 -32 33
c-24 25 -33 43 -33 67 l0 34 125 -7 c112 -7 125 -6 125 9 0 9 7 16 18 14 41
-4 42 -2 42 111 0 148 -2 150 -149 150 l-109 0 -4 178 c-2 97 -7 183 -12 190
-5 9 -54 12 -180 12 -95 0 -176 -3 -179 -7z"/>
<path d="M7822 8209 c-204 -26 -326 -105 -363 -232 -7 -24 -5 -30 10 -34 17
-4 17 -7 -2 -61 -10 -31 -20 -82 -20 -112 l-2 -55 78 -3 c76 -2 77 -2 77 23 0
23 2 25 21 14 26 -13 44 1 54 43 6 23 3 28 -19 34 -32 8 -33 21 -3 65 57 86
171 126 335 116 138 -8 208 -40 250 -116 27 -48 38 -142 23 -198 -14 -51 -24
-58 -53 -39 -18 11 -35 13 -73 6 -27 -4 -129 -18 -225 -30 -329 -41 -472 -101
-515 -215 -18 -45 -14 -65 10 -65 12 0 11 -6 -2 -37 -11 -28 -14 -64 -11 -153
3 -100 7 -121 30 -166 79 -152 264 -225 492 -195 146 19 237 71 321 184 l44
57 6 -55 c9 -65 36 -111 84 -139 27 -15 52 -20 119 -19 47 0 87 5 91 11 3 5
17 12 31 13 24 4 25 7 22 68 -3 84 -20 111 -71 111 -21 0 -44 6 -50 13 -7 9
-11 127 -12 373 -1 197 -6 393 -10 434 -15 129 -91 250 -186 298 -120 61 -305
84 -481 61z m422 -1017 c-15 -37 -33 -75 -41 -84 -14 -15 -16 -15 -34 3 -26
26 -30 25 -81 -18 -82 -69 -204 -108 -287 -93 -100 18 -181 100 -181 184 0 43
-2 48 -30 57 -16 6 -30 15 -30 20 0 6 22 32 48 58 63 63 144 90 402 131 116
19 207 38 225 49 l30 17 3 -128 c2 -119 1 -133 -24 -196z"/>
<path d="M11800 8204 c-204 -35 -332 -119 -388 -254 -21 -51 -21 -52 -2 -57
21 -5 27 -27 11 -37 -16 -10 -59 -159 -72 -245 -7 -52 -9 -129 -6 -200 11
-202 63 -343 169 -456 109 -118 228 -165 412 -165 213 0 355 63 458 204 15 21
28 33 28 26 0 -26 71 55 100 114 33 64 39 130 16 161 -12 16 -23 18 -110 12
-122 -7 -143 -19 -148 -83 -2 -31 1 -48 9 -51 10 -4 6 -18 -14 -54 -28 -52
-37 -59 -47 -34 -9 24 -42 18 -78 -14 -67 -58 -115 -76 -208 -76 -76 0 -91 3
-138 30 -72 39 -139 115 -187 211 -34 69 -48 88 -87 114 -4 4 -11 20 -14 38
l-6 32 496 0 c324 0 496 3 496 10 0 6 11 10 24 10 14 0 28 4 31 10 9 15 -14
213 -35 296 -56 216 -197 378 -379 435 -64 20 -269 34 -331 23z m265 -228
c103 -47 185 -145 225 -269 12 -36 20 -84 18 -106 l-3 -41 -39 27 -38 28 -318
3 -318 3 1 72 c2 63 0 72 -15 69 -22 -4 -16 17 23 73 55 82 118 130 214 162
59 20 184 9 250 -21z"/>
<path d="M15910 8201 c-187 -27 -345 -128 -412 -262 -34 -66 -36 -93 -8 -84
16 5 19 3 13 -12 -3 -10 -10 -22 -14 -28 -17 -22 -49 -136 -65 -225 -39 -231
30 -479 176 -629 221 -227 638 -239 870 -25 33 31 68 69 77 84 9 16 22 26 28
24 20 -8 102 91 109 132 9 46 -1 92 -23 103 -26 14 -291 1 -324 -16 -16 -8
-37 -29 -47 -46 -22 -38 -101 -100 -153 -122 -49 -20 -133 -19 -183 4 -49 22
-110 75 -129 110 -7 15 -35 49 -63 77 -27 28 -53 60 -56 72 -9 26 -40 25 552
23 337 -1 383 1 389 15 3 8 11 13 19 10 30 -11 37 22 31 142 -7 131 -23 195
-74 297 -88 174 -233 294 -410 340 -75 19 -227 27 -303 16z m227 -312 c67 -26
138 -92 171 -160 22 -46 41 -149 28 -149 -4 0 -20 10 -35 21 -43 32 -96 38
-316 39 l-200 0 0 32 c0 27 -4 33 -27 38 l-27 5 28 46 c82 131 232 182 378
128z"/>
<path d="M17310 8186 c-52 -14 -138 -54 -146 -67 -10 -16 -22 -9 -28 16 -8 33
-26 36 -200 33 -170 -3 -182 -9 -151 -69 19 -37 26 -193 40 -920 l8 -356 141
-6 c119 -6 143 -5 152 8 6 8 21 15 33 15 l22 0 -3 440 c-2 356 -6 441 -16 445
-8 3 -18 3 -22 0 -25 -16 22 67 61 106 59 60 126 83 219 77 124 -9 195 -76
219 -204 5 -27 12 -202 15 -389 4 -187 9 -376 12 -420 l5 -80 145 -2 c123 -1
144 1 144 14 0 9 6 13 14 10 8 -3 21 0 29 6 13 10 13 67 6 437 -10 442 -15
500 -66 679 -29 103 -156 199 -301 230 -70 15 -275 13 -332 -3z"/>
<path d="M19335 8190 c-177 -23 -321 -111 -356 -217 -12 -39 -5 -68 15 -60 10
4 9 -6 -5 -43 -10 -26 -19 -74 -21 -107 l-3 -58 143 -2 c106 -2 142 1 142 10
0 31 23 89 46 117 46 54 105 74 224 74 131 1 191 -22 233 -86 44 -69 30 -167
-24 -160 -61 8 -96 8 -123 1 -16 -5 -101 -18 -188 -30 -159 -21 -333 -67 -399
-106 -60 -36 -118 -163 -74 -163 12 0 15 -5 10 -17 -17 -42 -27 -124 -23 -203
4 -96 33 -162 99 -232 48 -50 166 -105 259 -119 162 -25 371 24 482 112 l36
29 21 -43 c26 -54 86 -94 155 -102 63 -8 207 10 221 28 6 7 18 16 27 20 31 11
36 137 9 210 -9 23 -16 27 -50 27 -21 0 -43 6 -48 13 -6 7 -16 171 -22 380
-13 390 -20 444 -66 524 -48 80 -159 154 -287 189 -65 18 -334 26 -433 14z
m440 -842 c7 -113 -5 -185 -35 -213 -16 -15 -21 -15 -42 -1 -21 14 -28 12 -95
-21 -54 -26 -84 -35 -126 -35 -96 -1 -212 69 -193 117 4 11 -4 22 -24 33 -35
20 -35 18 -10 59 34 57 132 91 340 117 58 7 119 20 135 29 17 9 33 16 36 17 4
0 10 -46 14 -102z"/>
<path d="M8675 8150 c-4 -13 0 -31 12 -48 17 -25 18 -60 21 -472 3 -484 9
-550 59 -640 65 -115 161 -175 308 -193 215 -25 393 47 494 199 l30 46 3 -108
3 -109 73 -3 c58 -2 72 0 72 12 0 10 9 14 28 13 l27 -2 3 640 c1 352 0 650 -3
663 -5 21 -9 22 -124 22 -134 0 -146 -7 -114 -64 16 -27 18 -68 21 -357 4
-422 -15 -555 -92 -661 -19 -27 -20 -27 -33 -8 -20 28 -35 25 -89 -20 -63 -52
-130 -74 -201 -67 -111 12 -183 71 -220 181 -15 44 -18 110 -20 501 -2 248 -5
460 -8 473 -5 21 -9 22 -125 22 -111 0 -119 -1 -125 -20z"/>
<path d="M10094 6456 c-3 -8 2 -35 10 -60 12 -36 16 -89 16 -221 l0 -175 144
0 144 0 7 29 c3 17 1 39 -5 51 -11 20 -19 21 -93 19 -45 -2 -91 2 -102 8 -11
6 -26 8 -32 6 -9 -3 -13 8 -13 36 l0 41 106 0 c102 0 108 1 130 26 51 55 17
80 -97 70 -49 -4 -80 -3 -84 4 -3 5 -17 10 -31 10 -21 0 -24 5 -24 35 l0 35
115 0 c150 0 187 17 165 75 l-10 25 -170 0 c-137 0 -172 -3 -176 -14z"/>
<path d="M12667 6463 c-4 -3 -7 -28 -7 -55 0 -39 -3 -48 -17 -46 -10 1 -46 0
-80 0 -49 -2 -68 -7 -89 -25 -28 -24 -36 -73 -15 -86 9 -6 9 -20 1 -58 -15
-69 1 -127 47 -170 42 -40 97 -45 149 -12 29 17 34 18 34 5 0 -9 8 -16 20 -16
15 0 20 7 20 29 0 16 7 42 15 57 8 16 15 38 15 49 0 21 25 64 44 77 21 15 27
7 20 -27 -9 -51 13 -128 46 -160 41 -39 115 -46 163 -16 19 12 38 28 41 36 3
8 15 15 26 15 51 0 65 145 23 228 -27 53 -71 72 -165 72 -86 0 -117 -9 -147
-41 l-21 -23 0 71 c0 55 -4 73 -18 86 -18 17 -92 24 -105 10z m-17 -223 c25
-25 34 -60 27 -116 -5 -47 -26 -79 -57 -87 -16 -4 -18 -2 -10 13 14 26 13 29
-15 40 -14 5 -30 21 -35 36 -8 21 -15 25 -36 21 -25 -4 -26 -3 -19 32 12 71
98 108 145 61z"/>
<path d="M13388 6464 c-12 -12 -9 -49 5 -63 8 -9 11 -49 10 -144 -2 -73 0
-160 3 -194 l6 -63 85 0 c47 0 103 5 125 12 50 15 93 59 108 111 11 41 72 103
90 92 4 -3 5 -25 2 -50 -10 -96 49 -175 132 -175 61 0 107 33 129 93 11 29
-41 22 -55 -7 -13 -30 -56 -49 -91 -41 -30 8 -62 41 -70 73 -5 22 -4 22 106
22 l112 0 23 49 c12 27 22 53 22 58 0 15 22 32 35 27 7 -3 10 -15 7 -30 -9
-47 15 -71 99 -99 56 -19 80 -32 85 -47 8 -27 -12 -46 -56 -53 -19 -3 -29 -3
-22 1 36 17 -4 48 -78 60 -45 7 -49 0 -25 -46 29 -56 121 -78 185 -45 40 21
50 44 57 128 6 81 15 97 50 97 23 0 23 -2 17 -50 -13 -98 39 -178 120 -187 65
-8 104 11 127 61 18 41 18 41 -4 44 -12 2 -23 -1 -25 -7 -12 -35 -42 -56 -81
-56 -46 0 -76 23 -86 68 l-7 27 108 0 109 1 23 47 c12 26 22 59 22 75 0 15 5
27 13 27 31 0 37 -24 37 -152 l0 -128 25 0 c21 0 25 5 25 29 0 24 3 28 20 24
16 -4 20 0 20 20 0 36 -10 57 -26 57 -9 0 -14 12 -14 34 0 48 8 65 41 81 39
21 56 19 84 -10 23 -23 25 -31 25 -130 l0 -105 25 0 c22 0 25 4 25 36 0 24 4
33 12 28 8 -5 9 5 5 36 -3 24 -1 53 5 64 6 11 13 42 17 70 10 84 28 66 94 -91
51 -122 64 -143 82 -143 14 0 26 9 33 25 6 14 18 25 26 25 17 0 28 30 25 68
-4 55 10 79 61 101 62 27 74 27 60 2 -31 -58 4 -187 59 -215 41 -22 109 -20
148 4 38 23 48 40 62 105 5 28 13 62 16 76 4 15 2 52 -5 82 -10 48 -15 57 -45
71 -45 22 -175 22 -217 0 -25 -13 -36 -14 -50 -5 -20 12 -97 15 -115 3 -24
-15 -32 -58 -17 -88 13 -24 13 -35 3 -67 -19 -59 -27 -53 -26 20 2 51 -1 68
-12 68 -7 0 -21 16 -30 35 -15 32 -20 35 -64 38 -27 2 -54 -2 -62 -8 -15 -12
-52 -8 -86 11 -16 8 -55 10 -133 6 -102 -5 -111 -8 -134 -32 -24 -26 -24 -26
-46 -7 -38 35 -63 42 -144 42 -75 0 -81 -2 -123 -35 l-44 -34 -20 23 c-32 38
-58 46 -148 46 -78 0 -87 -2 -122 -30 l-37 -30 -30 25 c-39 33 -62 38 -155 34
-62 -3 -85 -9 -110 -27 l-33 -23 -10 28 c-21 57 -35 75 -80 101 -41 25 -55 27
-175 30 -71 2 -133 0 -137 -4z m238 -118 c39 -26 56 -62 61 -129 4 -51 0 -70
-19 -107 -21 -42 -62 -69 -57 -38 5 38 0 41 -51 35 l-50 -6 0 69 c0 59 -3 71
-20 80 -11 6 -25 8 -30 5 -6 -4 -10 18 -10 56 l0 62 76 -6 c43 -3 86 -12 100
-21z m2043 -97 c59 -21 82 -121 40 -180 -24 -35 -46 -38 -45 -6 1 16 -5 23
-22 25 -12 2 -27 13 -34 25 -15 30 -29 37 -50 26 -15 -8 -18 -6 -18 13 0 32
35 87 63 98 29 12 29 12 66 -1z"/>
<path d="M15856 6454 c-20 -19 -20 -35 -1 -60 11 -15 14 -53 15 -169 0 -185 6
-225 31 -225 17 0 19 9 19 88 0 55 4 92 12 100 7 7 17 27 22 44 18 55 39 47
71 -29 78 -189 83 -198 107 -201 18 -2 27 4 36 23 7 14 20 25 31 25 24 0 34
35 25 89 -5 32 -2 44 15 62 31 34 47 93 33 124 -9 20 -19 25 -47 25 -28 0 -37
-5 -50 -30 -19 -36 -19 -54 0 -70 16 -13 11 -59 -12 -100 -12 -23 -13 -22 -9
25 5 62 -3 107 -18 102 -6 -2 -18 14 -28 35 -17 37 -18 38 -73 38 l-55 0 0 34
c0 48 -33 86 -75 86 -18 0 -41 -7 -49 -16z"/>
<path d="M16342 6462 c-20 -13 -2 -116 22 -120 10 -2 22 2 27 10 7 10 9 10 9
-3 0 -8 -11 -26 -25 -39 -24 -23 -25 -27 -25 -167 l0 -143 25 0 c23 0 25 3 25
49 0 49 43 206 61 226 6 6 15 4 24 -5 10 -11 16 -51 21 -143 6 -114 9 -127 26
-127 14 0 18 8 18 35 0 22 4 34 12 33 7 -2 14 7 16 20 2 15 -2 22 -12 22 -12
0 -16 11 -16 43 0 72 48 119 100 97 34 -14 40 -39 40 -161 0 -81 2 -89 19 -89
12 0 21 9 25 26 4 15 13 33 21 40 16 16 8 54 -11 54 -19 0 -18 69 2 98 24 35
51 46 84 32 35 -15 40 -32 40 -152 0 -98 0 -98 25 -98 24 0 25 3 25 62 0 52 5
69 31 110 42 64 59 63 59 -4 0 -112 35 -167 113 -175 69 -8 110 10 135 60 l22
42 -23 4 c-13 2 -26 -4 -32 -15 -30 -51 -79 -69 -126 -44 -19 10 -49 59 -49
80 0 6 41 10 113 10 l112 0 23 50 c12 27 22 61 22 75 0 28 3 29 31 15 17 -10
19 -22 19 -140 l0 -130 25 0 c21 0 25 5 25 30 0 22 4 28 15 24 8 -4 17 1 21
10 9 24 -4 66 -21 66 -7 0 -16 8 -19 18 -19 58 54 129 108 104 37 -16 46 -49
46 -158 0 -94 0 -94 25 -94 22 0 25 4 25 35 0 19 5 35 10 35 16 0 12 47 -5 64
-19 19 -19 23 -1 41 15 15 31 107 24 140 -6 33 -72 47 -188 41 -100 -5 -106
-6 -130 -35 -24 -27 -27 -28 -37 -12 -23 36 -80 53 -167 49 -80 -3 -83 -4
-120 -42 l-39 -38 -14 26 c-25 47 -57 55 -219 55 -82 0 -179 -4 -216 -8 l-68
-7 0 37 c0 65 -60 111 -108 81z"/>
<path d="M18493 6454 c-3 -10 0 -31 7 -48 8 -20 14 -100 17 -218 l5 -188 24 0
c23 0 24 2 24 85 l0 85 79 0 c90 0 125 10 152 44 17 21 50 27 102 17 4 0 7
-34 7 -73 0 -121 47 -174 147 -166 48 4 61 10 85 37 33 37 37 71 8 71 -10 0
-24 -9 -30 -19 -19 -37 -41 -51 -80 -51 -30 0 -43 6 -64 31 -14 17 -26 39 -26
50 0 18 8 19 106 19 121 0 126 2 153 82 22 65 44 70 52 10 7 -55 23 -70 95
-88 88 -23 114 -53 76 -87 -21 -19 -97 -23 -107 -7 -4 7 2 9 18 5 44 -12 41
14 -5 35 -86 39 -117 13 -59 -52 24 -27 36 -32 87 -35 73 -5 102 9 133 66 22
40 23 46 11 96 -12 50 -11 55 10 85 30 43 53 36 61 -18 7 -55 23 -70 95 -88
60 -16 94 -37 94 -59 0 -22 -36 -45 -70 -45 -32 0 -33 1 -14 14 18 14 17 16
-26 35 -88 40 -120 14 -62 -50 24 -27 37 -33 83 -36 104 -9 137 23 146 142 5
66 9 79 29 92 37 24 55 11 42 -30 -17 -55 -2 -123 36 -164 27 -29 41 -36 82
-40 70 -7 120 16 142 64 10 21 28 54 40 73 33 52 31 130 -4 169 -40 45 -83 61
-162 61 -82 0 -106 -8 -147 -47 l-29 -29 -23 27 c-34 40 -72 52 -161 48 -68
-4 -82 -8 -111 -32 -34 -28 -34 -28 -55 -8 -32 30 -71 41 -144 41 -65 0 -82
-6 -136 -44 -25 -18 -26 -18 -56 8 -37 31 -80 40 -165 34 -46 -3 -73 -10 -94
-26 l-29 -21 -7 41 c-9 51 -47 92 -101 107 -21 6 -92 11 -157 11 -100 0 -119
-2 -124 -16z m254 -118 c20 -24 24 -37 19 -64 -6 -42 -11 -47 -51 -56 -24 -6
-28 -5 -18 5 19 19 -3 39 -44 39 -21 0 -36 6 -39 15 -4 8 -17 15 -30 15 -21 0
-24 5 -24 33 0 19 3 37 8 41 4 4 40 6 81 4 66 -3 76 -6 98 -32z m1322 -91 c63
-32 77 -140 25 -192 -30 -30 -42 -29 -36 2 3 19 -1 27 -20 34 -14 5 -32 21
-42 36 -12 19 -23 24 -37 20 -40 -13 -16 70 29 98 33 20 46 21 81 2z"/>
<path d="M20585 6441 c-3 -11 0 -33 8 -48 10 -19 17 -83 22 -210 l8 -183 23 0
c18 0 24 5 24 23 0 20 4 23 28 19 l28 -4 -4 184 c-2 109 -9 193 -16 208 -9 21
-19 25 -63 28 -44 3 -52 0 -58 -17z"/>
<path d="M17712 6415 c-17 -37 -15 -85 5 -107 15 -17 15 -18 -5 -18 -15 0 -22
-6 -22 -20 0 -15 7 -20 25 -20 l25 0 0 -108 c0 -130 10 -152 71 -152 39 0 39
0 38 38 -1 71 -15 152 -28 165 -10 10 -15 8 -27 -7 -13 -18 -14 -16 -14 24 0
42 1 43 19 26 18 -16 22 -16 50 -2 50 26 110 17 91 -14 -15 -23 -12 -116 4
-155 38 -91 200 -101 246 -16 6 13 21 21 35 21 31 0 45 26 45 82 0 92 -41 167
-107 194 -18 8 -65 14 -104 14 -58 0 -80 -5 -114 -24 -40 -24 -41 -24 -53 -5
-7 10 -21 19 -32 19 -16 0 -20 7 -20 33 0 45 -15 57 -70 57 -40 0 -48 -4 -58
-25z m410 -182 c45 -40 46 -136 3 -179 -27 -27 -56 -34 -35 -9 17 20 6 43 -22
47 -13 2 -27 13 -33 25 -12 28 -33 37 -51 22 -22 -18 -18 30 6 69 32 52 90 63
132 25z"/>
<path d="M10490 6340 c-23 -23 -26 -58 -6 -66 10 -4 13 -15 9 -37 -8 -50 24
-81 102 -102 36 -10 70 -24 76 -31 30 -37 -36 -86 -88 -65 -17 7 -20 10 -7 7
12 -2 27 0 34 4 15 10 -27 40 -59 43 -12 1 -21 5 -21 9 0 12 -38 10 -45 -3
-12 -19 17 -68 52 -90 48 -30 123 -23 163 16 34 33 48 98 31 146 -9 27 -7 37
15 75 29 49 34 52 57 26 14 -15 17 -48 19 -198 3 -171 4 -179 23 -179 18 0 20
8 23 63 2 34 6 62 10 62 4 0 16 -7 26 -15 48 -36 140 -4 174 60 24 47 26 51
45 78 18 25 39 160 23 145 -4 -3 -23 10 -41 30 l-33 37 -126 3 c-123 4 -127 3
-157 -22 l-31 -26 -30 25 c-27 23 -38 25 -124 25 -81 0 -97 -3 -114 -20z m517
-95 c56 -39 50 -165 -9 -199 -32 -19 -48 -17 -23 4 22 19 18 30 -15 42 -18 6
-32 19 -36 33 -6 24 -29 39 -45 29 -5 -3 -9 9 -9 26 0 65 82 103 137 65z"/>
<path d="M11200 6340 c-25 -25 -25 -37 -1 -52 17 -10 17 -14 5 -44 -18 -44
-18 -44 11 -44 14 0 25 6 25 13 0 44 92 64 124 28 37 -41 12 -62 -88 -76 -93
-13 -126 -86 -66 -147 28 -28 35 -30 81 -26 32 3 58 13 73 27 23 22 23 22 29
2 7 -30 67 -30 67 -1 0 11 -6 20 -12 20 -9 0 -10 3 -2 8 6 4 14 33 17 65 6 61
33 120 58 125 12 2 15 -11 14 -77 0 -88 13 -116 72 -157 24 -16 29 -24 21 -37
-8 -14 -4 -17 22 -17 25 0 31 -4 28 -17 -3 -13 -12 -17 -35 -16 -41 4 -52 -14
-17 -27 38 -15 84 -3 93 23 11 28 -4 57 -29 57 -11 0 -20 5 -20 10 0 6 9 10
20 10 50 0 117 80 106 125 -8 33 -35 32 -88 -1 l-42 -27 -27 33 c-17 20 -33
30 -43 27 -39 -15 -24 57 20 92 45 35 95 27 120 -21 11 -21 21 -28 37 -26 12
2 21 7 19 12 -3 11 77 38 89 30 4 -2 3 -19 -2 -37 -11 -37 -3 -99 18 -140 19
-38 70 -67 117 -67 46 0 110 34 124 65 7 16 17 22 29 19 11 -3 27 3 37 15 16
17 18 32 14 90 -6 80 -28 125 -78 158 -28 20 -46 23 -126 23 -86 0 -95 -2
-126 -27 -18 -15 -36 -32 -40 -38 -5 -6 -14 -1 -23 13 -28 39 -68 52 -158 52
-84 0 -85 0 -133 -40 l-48 -39 -18 30 c-24 40 -53 49 -159 49 -76 0 -92 -3
-109 -20z m867 -95 c29 -20 47 -83 39 -130 -11 -56 -69 -104 -63 -53 1 17 -4
24 -21 26 -13 2 -29 16 -38 34 -12 24 -21 29 -40 25 -27 -5 -30 6 -14 47 23
61 88 85 137 51z"/>
<path d="M20290 6347 c-30 -15 -37 -43 -16 -65 10 -12 12 -22 6 -32 -5 -8 -10
-25 -10 -37 0 -33 31 -29 51 6 32 56 124 46 124 -14 0 -29 -2 -30 -55 -36
-111 -12 -153 -58 -119 -132 14 -30 48 -47 94 -47 37 0 85 18 85 32 0 4 5 8
10 8 6 0 10 -7 10 -15 0 -10 11 -15 35 -15 24 0 35 5 35 15 0 8 -5 15 -11 15
-8 0 -8 4 0 13 13 16 4 252 -11 280 -5 10 -20 22 -34 27 -36 14 -165 12 -194
-3z"/>
</g>
</svg>
