<?xml version="1.0" standalone="no"?>
<!DOCTYPE svg PUBLIC "-//W3C//DTD SVG 20010904//EN"
 "http://www.w3.org/TR/2001/REC-SVG-20010904/DTD/svg10.dtd">
<svg version="1.0" xmlns="http://www.w3.org/2000/svg"
 width="3767.000000pt" height="1338.000000pt" viewBox="0 0 3767.000000 1338.000000"
 preserveAspectRatio="xMidYMid meet">
<metadata>
Created by potrace 1.16, written by Peter Selinger 2001-2019
</metadata>
<g transform="translate(0.000000,1338.000000) scale(0.100000,-0.100000)"
fill="#000000" stroke="none">
<path d="M6179 13364 c-14 -9 -108 -127 -210 -262 -242 -324 -980 -1299 -1080
-1429 -44 -56 -79 -106 -79 -111 0 -6 -4 -12 -9 -14 -12 -4 -181 -225 -181
-237 0 -5 -4 -11 -8 -13 -13 -5 -182 -225 -182 -236 0 -6 -7 -12 -15 -16 -8
-3 -15 -12 -15 -20 0 -8 -4 -16 -9 -18 -12 -4 -121 -146 -121 -157 0 -5 -7
-11 -15 -15 -8 -3 -15 -10 -15 -16 0 -12 -15 -32 -42 -58 -10 -9 -18 -22 -18
-28 0 -7 -7 -14 -15 -18 -8 -3 -15 -13 -15 -21 0 -9 -4 -13 -10 -10 -5 3 -12
-6 -16 -20 -3 -13 -9 -23 -14 -20 -4 2 -13 -8 -21 -23 -8 -15 -20 -31 -26 -35
-7 -4 -13 -14 -13 -21 0 -8 -7 -16 -15 -20 -8 -3 -15 -12 -15 -20 0 -7 -7 -16
-15 -20 -8 -3 -15 -12 -15 -21 0 -8 -5 -15 -10 -15 -6 0 -15 -11 -20 -25 -5
-14 -14 -25 -20 -25 -5 0 -10 -7 -10 -15 0 -8 -9 -19 -20 -25 -11 -6 -20 -17
-20 -24 0 -8 -7 -16 -15 -20 -8 -3 -15 -10 -15 -16 0 -6 -6 -17 -12 -24 -7 -8
-20 -24 -28 -36 -8 -13 -23 -30 -32 -39 -10 -8 -18 -21 -18 -28 0 -7 -5 -13
-10 -13 -6 0 -15 -11 -20 -25 -5 -14 -14 -25 -20 -25 -6 0 -9 -4 -6 -8 3 -5
-6 -16 -20 -26 -13 -11 -24 -23 -24 -29 0 -5 -8 -16 -17 -24 -12 -10 -13 -12
-3 -8 8 4 2 -6 -15 -20 -16 -15 -23 -24 -15 -20 12 7 13 5 3 -6 -7 -7 -12 -33
-11 -59 l1 -45 6 45 c4 25 7 -886 7 -2025 0 -1138 -2 -2060 -4 -2047 -7 41
-17 23 -14 -25 2 -32 -2 -55 -12 -68 -9 -11 -94 -123 -189 -250 -132 -176
-185 -238 -224 -265 -45 -30 -159 -182 -848 -1124 -439 -600 -799 -1096 -802
-1103 -4 -11 278 -13 1566 -13 1799 0 1610 -11 1680 102 143 230 452 648 936
1263 437 556 528 678 582 776 23 41 61 97 85 124 113 126 267 324 581 745 446
596 539 713 773 965 105 114 111 123 123 180 9 46 9 467 3 1810 -5 1066 -5
1789 1 1850 13 149 6 260 -22 318 -22 45 -61 77 -95 77 -31 0 -76 -55 -127
-153 -46 -90 -124 -192 -658 -860 l-606 -758 -6 368 c-3 202 -7 904 -9 1558
-1 655 -5 1357 -8 1560 -7 348 -8 372 -28 405 -17 30 -26 35 -59 37 -24 2 -51
-4 -66 -13z"/>
</g>
</svg>
